/vscmnt/brussel_pixiu_data/_data_brussel/112/vsc11236/PredSimResults/SUBJ09_gait1422_tracking/SUBJ09_gait1422_11453296.mot
version=1
nRows=9
nColumns=50
inDegrees=yes
endheader
                time	         pelvis_tilt	         pelvis_list	     pelvis_rotation	           pelvis_tx	           pelvis_ty	           pelvis_tz	       hip_flexion_r	     hip_adduction_r	      hip_rotation_r	        knee_angle_r	       ankle_angle_r	         mtp_angle_r	       hip_flexion_l	     hip_adduction_l	      hip_rotation_l	        knee_angle_l	       ankle_angle_l	         mtp_angle_l	    lumbar_extension	      lumbar_bending	     lumbar_rotation	 ercspn_r/activation	 intobl_r/activation	 extobl_r/activation	    abd_r/activation	    add_r/activation	hamstrings_r/activation	bifemsh_r/activation	glut_max_r/activation	iliopsoas_r/activation	rect_fem_r/activation	  vasti_r/activation	gastroc_r/activation	 soleus_r/activation	tib_ant_r/activation	 ercspn_l/activation	 intobl_l/activation	 extobl_l/activation	    abd_l/activation	    add_l/activation	hamstrings_l/activation	bifemsh_l/activation	glut_max_l/activation	iliopsoas_l/activation	rect_fem_l/activation	  vasti_l/activation	gastroc_l/activation	 soleus_l/activation	tib_ant_l/activation	
          1.78830876	         -0.15011975	         -2.81129230	         -2.06947432	          2.20237000	          0.98155715	          0.01586198	        -14.17963197	          4.16386798	        -12.89311112	        -13.62534993	         15.86478418	         24.16423557	         29.18626735	         -3.83777011	        -18.91069780	         -9.36871920	         -4.55148624	          0.17667548	        -12.00808076	          3.91119087	          9.33126710	          0.04434764	          0.01000036	          0.01000032	          0.05763412	          0.01000105	          0.01949818	          0.11477304	          0.01984027	          0.26443918	          0.28542175	          0.05988322	          0.55342889	          0.40365426	          0.04289299	          0.07039765	          0.13459363	          0.02127103	          0.03925752	          0.07040134	          0.05455800	          0.44295602	          0.07931781	          0.14493459	          0.01000021	          0.01000037	          0.02919982	          0.01436905	          0.18300799	
          1.80023082	         -0.25248471	         -2.50881148	         -2.64208872	          2.22017162	          0.98146235	          0.01595494	        -14.59488768	          3.50353252	        -12.83486133	        -14.37987346	         14.20804182	         26.84616911	         28.45383223	         -3.67412691	        -18.47616405	         -9.85442497	         -4.13488381	          0.14680011	        -11.64283992	          3.36030351	          9.45336113	          0.03699644	          0.01000066	          0.01834798	          0.04808067	          0.01000095	          0.01626614	          0.09574791	          0.03350207	          0.22060506	          0.23810928	          0.04995677	          0.59250746	          0.54524129	          0.03578290	          0.05872831	          0.18771135	          0.05249844	          0.03275007	          0.05873170	          0.04551429	          0.36953100	          0.06616983	          0.26322774	          0.01000015	          0.01000003	          0.02435957	          0.01198729	          0.20975291	
          1.81215288	         -0.35702926	         -2.13260667	         -3.19027485	          2.23835754	          0.98167780	          0.01597348	        -15.04255915	          2.75801176	        -12.67993701	        -15.02329049	         12.27536748	         29.65180242	         27.79752468	         -3.41407660	        -17.97458871	        -10.70881426	         -3.49097651	          0.15226561	        -11.23126584	          2.71624941	          9.57089916	          0.03086380	          0.01000069	          0.11619163	          0.04011112	          0.01000118	          0.01356985	          0.07987647	          0.02966426	          0.23721544	          0.19863945	          0.04167577	          0.54786647	          0.47714599	          0.02985140	          0.04899332	          0.23458344	          0.13747911	          0.02732131	          0.04899624	          0.03796969	          0.30827638	          0.05520130	          0.34462088	          0.15259646	          0.02157568	          0.02032165	          0.01000023	          0.24174927	
          1.82407494	         -0.45903054	         -1.60139277	         -3.67248536	          2.25641597	          0.98235190	          0.01584547	        -15.37401170	          1.83273500	        -12.49833380	        -15.78310335	         10.13812272	         32.53811415	         27.36991170	         -2.98295685	        -17.38985780	        -11.77345185	         -3.42693671	          0.17726733	        -10.85364340	          1.88354083	          9.64503158	          0.02574772	          0.01435572	          0.09693150	          0.03558896	          0.01000021	          0.01132120	          0.06663604	          0.02474799	          0.28473265	          0.16571228	          0.03476745	          0.52230129	          0.46754207	          0.02490312	          0.04087204	          0.19569834	          0.12942106	          0.02279245	          0.04308868	          0.03167572	          0.25717555	          0.04605099	          0.28749537	          0.12730161	          0.05506134	          0.01695323	          0.02753602	          0.20167609	
          1.83599699	         -0.55504865	         -0.88863467	         -4.06983319	          2.27415625	          0.98352430	          0.01551037	        -15.45999747	          0.68349285	        -12.32318158	        -16.88943673	          7.83525003	         35.48624991	         27.15186404	         -2.34396293	        -16.71211296	        -12.98083500	         -4.05529134	          0.17204132	        -10.54001135	          0.83497480	          9.64965991	          0.02147972	          0.01197619	          0.08086383	          0.02968966	          0.01000007	          0.12860530	          0.05559540	          0.02064572	          0.35299287	          0.13824323	          0.02900427	          0.47803654	          0.39009751	          0.02077509	          0.03409701	          0.16325876	          0.10796783	          0.01901451	          0.03749897	          0.02642522	          0.21454548	          0.06487061	          0.23983913	          0.10619967	          0.04593421	          0.01414314	          0.02297166	          0.16930847	
          1.84791905	         -0.63077774	         -0.10608764	         -4.37160044	          2.29160243	          0.98512019	          0.01494260	        -15.21190554	         -0.58990087	        -12.17483153	        -18.56107426	          5.37036213	         38.44331807	         27.07579614	         -1.60009579	        -15.92317080	        -14.41957745	         -4.58435252	          0.16754319	        -10.30605373	         -0.29587667	          9.59008784	          0.07238337	          0.01000024	          0.06745958	          0.02476821	          0.01000016	          0.10728831	          0.20234295	          0.01722344	          0.40969148	          0.11532754	          0.02419642	          0.39879552	          0.32543356	          0.01733134	          0.06317487	          0.13619644	          0.09007073	          0.10363577	          0.07379707	          0.07165979	          0.25858831	          0.07035627	          0.20008256	          0.08859565	          0.03832001	          0.03172394	          0.01916390	          0.14957429	
          1.85984111	         -0.67680093	          0.58266333	         -4.57647886	          2.30884032	          0.98705141	          0.01414426	        -14.53980244	         -1.83723271	        -12.00002297	        -21.00754686	          2.68981298	         41.29500523	         27.00170995	         -0.90766004	        -15.09092306	        -15.98212504	         -4.60724026	          0.28461033	        -10.15089589	         -1.31280987	          9.48352540	          0.12838154	          0.01000060	          0.05627726	          0.02066255	          0.01000012	          0.11992884	          0.38480247	          0.01436844	          0.43633605	          0.09621045	          0.02018554	          0.33268975	          0.27148853	          0.01445844	          0.08075787	          0.11362007	          0.07514032	          0.19237510	          0.11223707	          0.07561677	          0.24466445	          0.07835000	          0.16691618	          0.07390974	          0.03196796	          0.04484113	          0.02362149	          0.12478042	
          1.87176317	         -0.70330053	          1.06772444	         -4.66947694	          2.32586044	          0.98922232	          0.01312187	        -13.35702105	         -2.94460468	        -11.67486481	        -24.39255557	         -0.05531886	         43.37605768	         26.81101630	         -0.39079289	        -14.47170364	        -17.45866628	         -4.12362379	          0.67147035	        -10.05915690	         -2.08054958	          9.32280627	          0.17427308	          0.01000074	          0.04694857	          0.01723746	          0.03211659	          0.10004906	          0.33183653	          0.01198669	          0.39288094	          0.08026227	          0.01683951	          0.27754191	          0.22648562	          0.04956753	          0.07366716	          0.09478603	          0.06268482	          0.20470535	          0.14046499	          0.06639987	          0.20410824	          0.14076367	          0.13924757	          0.06165823	          0.03714707	          0.04299955	          0.03889636	          0.10409642	
          1.88368523	         -0.73152848	          1.38759669	         -4.65842718	          2.34261029	          0.99151579	          0.01191257	        -11.64283256	         -3.92361382	        -11.14694898	        -28.74727893	         -2.34268720	         43.36211713	         26.42491321	         -0.01093416	        -14.25117407	        -18.60982455	         -3.33200843	          1.33604238	         -9.99824445	         -2.63882696	          9.10090655	          0.19585784	          0.01000077	          0.03916625	          0.01438013	          0.07832105	          0.08346458	          0.27683016	          0.01000009	          0.32775566	          0.16402502	          0.01404814	          0.23153557	          0.18894256	          0.13031789	          0.07573172	          0.07907400	          0.05229399	          0.19897399	          0.17141617	          0.07169716	          0.17027484	          0.21084911	          0.11616541	          0.05143756	          0.04219836	          0.03860370	          0.03244931	          0.08684109	
